<svg xmlns="http://www.w3.org/2000/svg" width="53.224" height="38.629" viewBox="0 0 53.224 38.629"><defs><style>.a{fill:#307fe2;}</style></defs><g transform="translate(-949.161 -5335.28)"><path class="a" d="M11.292,35.686a10.324,10.324,0,0,1-8.945-5.162,21.118,21.118,0,0,1-.87-1.936A21.729,21.729,0,0,1,15.157,0a18.6,18.6,0,0,0-3.108,10.575,20.4,20.4,0,0,0,.5,4.525,10.333,10.333,0,0,1,9.075,10.255c0,.164,0,.327-.011.489a10.333,10.333,0,0,1-10.321,9.843" transform="translate(954.743 5335.28) rotate(9)"/><path class="a" d="M11.292,35.686a10.324,10.324,0,0,1-8.945-5.162,21.118,21.118,0,0,1-.87-1.936A21.729,21.729,0,0,1,15.157,0a18.6,18.6,0,0,0-3.108,10.575,20.4,20.4,0,0,0,.5,4.525,10.333,10.333,0,0,1,9.075,10.255c0,.164,0,.327-.011.489a10.333,10.333,0,0,1-10.321,9.843" transform="translate(981.027 5335.28) rotate(9)"/></g></svg>