<svg xmlns="http://www.w3.org/2000/svg" width="293" height="34" viewBox="0 0 293 34"><defs><style>.a{fill:#307fe2;}.b{fill:#fff;font-size:28px;font-family:Lato-Heavy, Lato;font-weight:800;letter-spacing:0.156em;}</style></defs><g transform="translate(-19 -36)"><g transform="translate(-2410.868 -266.8)"><path class="a" d="M2485.133,319.2l-23.992-13.851.032.057a5.8,5.8,0,0,0-5.55-.223l-.183.106-.466.269-23.668,13.665a2.875,2.875,0,0,0-1.052,3.927l.041.07a2.874,2.874,0,0,0,3.927,1.052l18.97-10.953,5.045-2.913,4.98,2.875,19,10.97a2.915,2.915,0,0,0,3.983-1.067h0a2.916,2.916,0,0,0-1.066-3.983Z" transform="translate(0)"/><path class="a" d="M2869.323,529.038l23.992,13.851-.032-.057a5.8,5.8,0,0,0,5.55.223l.183-.106.466-.269,23.668-13.665a2.875,2.875,0,0,0,1.052-3.927l-.04-.07a2.875,2.875,0,0,0-3.927-1.052l-18.97,10.953-5.045,2.913-4.979-2.875-19-10.97a2.915,2.915,0,0,0-3.982,1.067h0a2.915,2.915,0,0,0,1.066,3.983Z" transform="translate(-415.717 -207.857)"/></g><text class="b" transform="translate(106 64)"><tspan x="0" y="0">RemoteState</tspan></text></g></svg>