<svg xmlns="http://www.w3.org/2000/svg" width="161.617" height="46" viewBox="0 0 161.617 46"><defs><style>.a,.c{opacity:0.6;}.b,.c{fill:#03172c;}.c{font-size:30px;font-family:LucidaSansUnicode, Lucida Sans Unicode;}</style></defs><g transform="translate(-191.383 -1438)"><g class="a" transform="translate(-169.312 1043.828)"><circle class="b" cx="4.986" cy="4.986" r="4.986" transform="translate(360.694 403.836)"/><circle class="b" cx="4.986" cy="4.986" r="4.986" transform="translate(371.356 394.172)"/><circle class="b" cx="5.733" cy="5.733" r="5.733" transform="translate(390.844 413.398)"/><circle class="b" cx="2.16" cy="2.16" r="2.16" transform="translate(384.037 396.537)"/><circle class="b" cx="4.102" cy="4.102" r="4.102" transform="translate(372.02 405.453)"/><circle class="b" cx="2.16" cy="2.16" r="2.16" transform="translate(394.417 406.661)"/><circle class="b" cx="2.16" cy="2.16" r="2.16" transform="translate(363.519 417.297)"/><circle class="b" cx="1.636" cy="1.636" r="1.636" transform="translate(374.705 427.678)"/><circle class="b" cx="3.368" cy="3.368" r="3.368" transform="translate(372.973 416.089)"/><circle class="b" cx="3.368" cy="3.368" r="3.368" transform="translate(382.829 405.453)"/><circle class="b" cx="4.551" cy="4.551" r="4.551" transform="translate(381.368 414.581)"/><circle class="b" cx="5.238" cy="5.238" r="5.238" transform="translate(381.368 424.526)"/></g><text class="c" transform="translate(248 1471)"><tspan x="0" y="0">VORTO</tspan></text></g></svg>