<svg xmlns="http://www.w3.org/2000/svg" xmlns:xlink="http://www.w3.org/1999/xlink" width="131.717" height="144.284" viewBox="0 0 131.717 144.284"><defs><style>.a{mix-blend-mode:color-burn;fill:url(#a);}.a,.c,.g{isolation:isolate;}.b{fill:#307fe2;}.c,.g{mix-blend-mode:screen;}.c{fill:url(#b);}.d{fill:#03172c;}.e{fill:url(#d);}.f{fill:url(#e);}.g{fill:url(#f);}.h{fill:#fff;}</style><radialGradient id="a" cx="0.5" cy="0.5" r="0.6" gradientTransform="translate(0.09 0.255) scale(0.82 0.82)" gradientUnits="objectBoundingBox"><stop offset="0.075" stop-color="#828282"/><stop offset="0.195" stop-color="#a2a2a2"/><stop offset="0.345" stop-color="#c3c3c3"/><stop offset="0.499" stop-color="#ddd"/><stop offset="0.657" stop-color="#f0f0f0"/><stop offset="0.82" stop-color="#fbfbfb"/><stop offset="1" stop-color="#fff"/></radialGradient><linearGradient id="b" y1="0.5" x2="1" y2="0.5" gradientUnits="objectBoundingBox"><stop offset="0" stop-color="#eebe47"/><stop offset="0.12" stop-color="#f8db76"/><stop offset="0.21" stop-color="#ffee96"/><stop offset="0.446" stop-color="#a2621e"/><stop offset="0.667" stop-color="#eea54c"/><stop offset="1" stop-color="#eebe47"/></linearGradient><linearGradient id="d" x1="0.118" y1="0.182" x2="0.873" y2="0.81" xlink:href="#b"/><radialGradient id="e" cx="0.814" cy="0.964" r="1.059" gradientTransform="translate(0)" gradientUnits="objectBoundingBox"><stop offset="0.059" stop-color="#2c3c4f"/><stop offset="0.516" stop-color="#0d1d30"/><stop offset="1" stop-color="#060d29"/></radialGradient><radialGradient id="f" cx="0.5" cy="0.5" r="0.5" gradientTransform="matrix(0.164, 1, -0.986, 0.003, -88.544, 67.417)" gradientUnits="objectBoundingBox"><stop offset="0" stop-color="#ffc94c"/><stop offset="0.14" stop-color="#a2621e"/><stop offset="0.163" stop-color="#955a1b"/><stop offset="0.25" stop-color="#6e4214"/><stop offset="0.343" stop-color="#4c2e0e"/><stop offset="0.441" stop-color="#301d08"/><stop offset="0.546" stop-color="#1a1004"/><stop offset="0.663" stop-color="#0b0702"/><stop offset="0.798" stop-color="#020100"/><stop offset="1"/></radialGradient></defs><g transform="translate(-37.91 -18.543)"><g transform="translate(37.91 18.543)"><path class="a" d="M168.86,121.832c0,29.142-28.827,52.769-64.387,52.769s-64.385-23.627-64.385-52.769,28.826-52.771,64.385-52.771S168.86,92.688,168.86,121.832Z" transform="translate(-40.088 -39.475)"/><g transform="translate(26.193 73.156)"><g transform="translate(33.982)"><path class="b" d="M157.83,138.337l-22.064,8.837,24.167,60.345,7.935-12.147L182,198.682Z" transform="translate(-135.765 -138.337)"/><path class="c" d="M157.683,138.679l23.882,59.632-13.637-3.2-.18-.042-.1.154-7.66,11.724-23.881-59.632,21.576-8.64m.146-.342-22.064,8.837,24.167,60.345,7.935-12.147L182,198.682l-24.167-60.345Z" transform="translate(-135.765 -138.337)"/></g><g transform="translate(0 1.947)"><path class="b" d="M105.9,141.432l22.063,8.837L103.8,210.613l-7.937-12.146-14.128,3.31Z" transform="translate(-81.734 -141.432)"/><path class="c" d="M106.049,141.774l21.576,8.642-23.881,59.632-7.66-11.724-.1-.154-.18.042-13.637,3.2,23.883-59.632m-.147-.342L81.734,201.777l14.129-3.31,7.937,12.147,24.166-60.345L105.9,141.432Z" transform="translate(-81.734 -141.432)"/></g></g><circle class="b" cx="49.408" cy="49.408" r="49.408" transform="matrix(0.122, -0.993, 0.993, 0.122, 11.024, 108.619)"/><circle class="b" cx="48.27" cy="48.27" r="48.27" transform="translate(0.48 46.799) rotate(-28.997)"/><circle class="d" cx="47.225" cy="47.225" r="47.225" transform="matrix(0.962, -0.272, 0.272, 0.962, 7.798, 33.04)"/><g transform="translate(21.553 20.95)"><path class="b" d="M116.927,144.669a.53.53,0,0,1-.507-.548h0a.525.525,0,0,1,.549-.5h0a.529.529,0,0,1,.506.549h0a.528.528,0,0,1-.528.507h0C116.937,144.674,116.932,144.674,116.927,144.669Zm7.408-.808a.529.529,0,0,1,.454-.6h0a.533.533,0,0,1,.6.454h0a.53.53,0,0,1-.454.591h0a.338.338,0,0,1-.075.006h0A.528.528,0,0,1,124.336,143.861Zm-15.355-.248v-.006h0a.522.522,0,0,1-.4-.628h0a.528.528,0,0,1,.628-.4h0a.531.531,0,0,1,.4.633h0a.536.536,0,0,1-.518.412h0A1.007,1.007,0,0,1,108.981,143.613Zm23.1-1.42a.526.526,0,0,1,.338-.666h0a.525.525,0,0,1,.665.338h0a.532.532,0,0,1-.338.665h0a.627.627,0,0,1-.164.026h0A.532.532,0,0,1,132.081,142.193Zm-30.725-1.051a.531.531,0,0,1-.279-.7h0a.527.527,0,0,1,.691-.275h0a.524.524,0,0,1,.28.692h0a.527.527,0,0,1-.486.322h0A.543.543,0,0,1,101.356,141.142Zm38.038-1.98a.531.531,0,0,1,.216-.718h0a.525.525,0,0,1,.713.217h0a.528.528,0,0,1-.211.713h0a.485.485,0,0,1-.253.064h0A.533.533,0,0,1,139.394,139.162ZM94.3,137.34h-.006a.532.532,0,0,1-.147-.733h0a.533.533,0,0,1,.734-.148h0a.529.529,0,0,1,.147.734h0a.525.525,0,0,1-.438.238h0A.532.532,0,0,1,94.3,137.34Zm51.755-2.471a.517.517,0,0,1,.084-.738h0a.522.522,0,0,1,.739.079h0a.525.525,0,0,1-.084.745h0a.506.506,0,0,1-.327.116h0A.528.528,0,0,1,146.052,134.869ZM88.03,132.345a.531.531,0,0,1-.022-.749h0a.533.533,0,0,1,.75-.016h0a.532.532,0,0,1,.016.745h0a.523.523,0,0,1-.386.164h0A.519.519,0,0,1,88.03,132.345Zm63.809-2.882a.528.528,0,0,1-.048-.744h0a.528.528,0,0,1,.745-.053h0a.527.527,0,0,1,.047.745h0a.52.52,0,0,1-.4.185h0A.553.553,0,0,1,151.839,129.462Zm-69.094-3.147h0a.53.53,0,0,1,.111-.739h0a.532.532,0,0,1,.74.116h0a.527.527,0,0,1-.116.739h0a.527.527,0,0,1-.313.1h0A.526.526,0,0,1,82.745,126.315Zm73.831-3.205a.525.525,0,0,1-.18-.723h0a.53.53,0,0,1,.723-.184h0a.531.531,0,0,1,.18.728h0a.526.526,0,0,1-.454.253h0A.505.505,0,0,1,156.575,123.11Zm-77.955-3.669a.524.524,0,0,1,.248-.7h0a.527.527,0,0,1,.707.243h0a.529.529,0,0,1-.248.707h0a.583.583,0,0,1-.226.053h0A.534.534,0,0,1,78.621,119.441Zm81.482-3.427a.526.526,0,0,1-.312-.676h0a.534.534,0,0,1,.681-.311h0a.53.53,0,0,1,.312.681h0a.529.529,0,0,1-.5.343h0A.461.461,0,0,1,160.1,116.014Zm-84.3-4.07a.522.522,0,0,1,.365-.65h0a.521.521,0,0,1,.649.364h0a.521.521,0,0,1-.364.649h0a.43.43,0,0,1-.143.021h0A.526.526,0,0,1,75.8,111.943Zm86.5-3.538a.527.527,0,0,1-.428-.613h0a.526.526,0,0,1,.613-.428h0a.534.534,0,0,1,.428.612h0a.531.531,0,0,1-.523.439h0A.49.49,0,0,1,162.3,108.406Zm-87.934-4.351a.531.531,0,0,1,.48-.57h0a.526.526,0,0,1,.575.475h0a.531.531,0,0,1-.48.575h-.048A.532.532,0,0,1,74.365,104.055Zm88.2-4.055v-.052h0V99.9h0a.534.534,0,0,1,.528-.533h0a.53.53,0,0,1,.528.528h0v.048h0V100h0a.53.53,0,0,1-.528.528h0A.529.529,0,0,1,162.563,100ZM74.84,96.615a.531.531,0,0,1-.48-.575h0a.522.522,0,0,1,.57-.475h0a.523.523,0,0,1,.481.57h0a.527.527,0,0,1-.528.481H74.84Zm87.01-4.509a.529.529,0,0,1,.428-.618h0a.527.527,0,0,1,.612.428h0a.527.527,0,0,1-.423.613h0a.593.593,0,0,1-.1.011h0A.529.529,0,0,1,161.85,92.106ZM76.144,88.8a.528.528,0,0,1-.375-.649h0a.535.535,0,0,1,.65-.37h0a.53.53,0,0,1,.369.65h0a.523.523,0,0,1-.506.391h0A.4.4,0,0,1,76.144,88.8Zm83.615-4.235a.524.524,0,0,1,.306-.681h0a.524.524,0,0,1,.681.306h0a.53.53,0,0,1-.306.681h0a.6.6,0,0,1-.191.037h0A.526.526,0,0,1,159.759,84.566ZM78.827,81.351a.529.529,0,0,1-.248-.708h0a.534.534,0,0,1,.707-.248h0a.53.53,0,0,1,.248.708h0a.533.533,0,0,1-.479.3h0A.594.594,0,0,1,78.827,81.351Zm77.516-3.823h0a.536.536,0,0,1,.18-.729h0a.533.533,0,0,1,.728.185h0a.527.527,0,0,1-.185.723h0a.493.493,0,0,1-.269.074h0A.532.532,0,0,1,156.343,77.528ZM82.808,74.5a.526.526,0,0,1-.116-.74h0a.528.528,0,0,1,.734-.116h0a.526.526,0,0,1,.116.739h0a.52.52,0,0,1-.428.216h0A.506.506,0,0,1,82.808,74.5Zm68.921-3.289a.527.527,0,0,1,.047-.745h0a.528.528,0,0,1,.745.047h0a.527.527,0,0,1-.048.745h0a.52.52,0,0,1-.348.132h0A.533.533,0,0,1,151.728,71.208ZM87.94,68.467a.532.532,0,0,1,.016-.75h0a.526.526,0,0,1,.745.016h0a.532.532,0,0,1-.011.75h0a.551.551,0,0,1-.369.143h0A.537.537,0,0,1,87.94,68.467Zm58.123-2.66a.518.518,0,0,1-.085-.74h0a.527.527,0,0,1,.739-.084h0a.526.526,0,0,1,.085.739h0a.527.527,0,0,1-.412.2h0A.505.505,0,0,1,146.063,65.807Zm-52-2.366a.521.521,0,0,1,.148-.728h0a.528.528,0,0,1,.734.148h0a.526.526,0,0,1-.148.728h0a.508.508,0,0,1-.3.09h0A.526.526,0,0,1,94.065,63.441ZM139.526,61.5h-.005a.528.528,0,0,1-.211-.713h0a.524.524,0,0,1,.713-.216h0a.525.525,0,0,1,.216.713h0a.525.525,0,0,1-.464.28h0A.534.534,0,0,1,139.526,61.5Zm-38.538-1.912a.527.527,0,0,1,.274-.7h0a.525.525,0,0,1,.692.28h0a.525.525,0,0,1-.274.692h0a.488.488,0,0,1-.206.042h0A.529.529,0,0,1,100.988,59.592Zm31.337-1.157a.528.528,0,0,1-.344-.665h0a.529.529,0,0,1,.665-.338h0a.524.524,0,0,1,.338.665h0a.522.522,0,0,1-.5.365h0A.407.407,0,0,1,132.324,58.435Zm-23.84-1.394a.531.531,0,0,1,.4-.633h0a.535.535,0,0,1,.634.4h0a.532.532,0,0,1-.4.633h0a.468.468,0,0,1-.121.016h0A.528.528,0,0,1,108.484,57.041Zm16.2-.322a.533.533,0,0,1-.454-.6h0a.526.526,0,0,1,.591-.455h0a.533.533,0,0,1,.455.6h0a.52.52,0,0,1-.523.454h-.069Zm-8.369-.84a.523.523,0,0,1,.5-.549h0a.522.522,0,0,1,.549.5h0a.522.522,0,0,1-.5.549h0a.033.033,0,0,1-.021.005h0A.525.525,0,0,1,116.32,55.88Z" transform="translate(-74.358 -55.33)"/></g><circle class="b" cx="40.571" cy="40.571" r="40.571" transform="translate(10.257 78.801) rotate(-58.282)"/><circle class="b" cx="39.754" cy="39.754" r="39.754" transform="translate(14.157 87.133) rotate(-67.5)"/><path class="e" d="M158.139,107.709a31.6,31.6,0,1,1-31.6-31.6A31.6,31.6,0,0,1,158.139,107.709Z" transform="translate(-60.443 -42.091)"/><path class="f" d="M85.312,104.136a37.655,37.655,0,1,1,37.656,37.656A37.654,37.654,0,0,1,85.312,104.136Z" transform="translate(-56.869 -38.517)"/><path class="b" d="M124.348,70.2a35.315,35.315,0,1,0,35.316,35.315A35.315,35.315,0,0,0,124.348,70.2Zm0,69.735a34.42,34.42,0,1,1,34.42-34.42A34.42,34.42,0,0,1,124.348,139.936Z" transform="translate(-58.249 -39.898)"/><path class="g" d="M206.757,131.3c-1.972.047-3.833-11.039-4.16-24.761s1.005-24.884,2.976-24.931,3.833,11.039,4.16,24.761S208.728,131.257,206.757,131.3Z" transform="translate(-100.371 -44.132)"/><g transform="translate(58.081 36.332)"><path class="h" d="M146.1,85.928l-2-1.182-2,1.184.507-2.264-1.742-1.532,2.309-.216.919-2.131.92,2.13,2.31.215-1.741,1.533Z" transform="translate(-135.567 -79.786)"/><path class="h" d="M155.8,86.367l-1.327-.786-1.326.788.337-1.506-1.158-1.017,1.535-.144.61-1.417.612,1.416,1.535.143-1.157,1.019Z" transform="translate(-139.815 -80.713)"/><path class="h" d="M135.911,86.367l-1.327-.786-1.326.788.337-1.506-1.158-1.017,1.535-.144.611-1.417.611,1.416,1.536.143-1.158,1.019Z" transform="translate(-132.437 -80.713)"/><g transform="translate(0 52.684)"><path class="h" d="M145.665,163.553l-1.995,1.184-2-1.182.51,2.264-1.741,1.533,2.309.215.92,2.13.919-2.132,2.309-.216-1.742-1.532Z" transform="translate(-135.407 -163.553)"/><path class="h" d="M135.909,164.33l-1.326.788-1.327-.786.339,1.5-1.157,1.019,1.535.143.612,1.416.61-1.417,1.536-.144-1.158-1.018Z" transform="translate(-132.437 -163.842)"/><path class="h" d="M155.455,165.835l.337-1.506-1.326.788-1.327-.786.339,1.5-1.158,1.019,1.536.143.611,1.416.611-1.417,1.535-.144Z" transform="translate(-139.815 -163.842)"/></g></g></g><path class="b" d="M143.956,92.948V135H133.463V112.453a39.621,39.621,0,0,0-.233-5.87,2.2,2.2,0,0,0-1.286-1.494,13.348,13.348,0,0,0-4.688-.506h-1.039v-4.9q7.609-1.638,11.557-6.733Z" transform="translate(-34.138 -29.796)"/></g></svg>