<svg xmlns="http://www.w3.org/2000/svg" width="92.74" height="92.739" viewBox="0 0 92.74 92.739"><defs><style>.a{opacity:0.6;}.b{fill:#fff;}.b,.c{fill-rule:evenodd;}.c{fill:#1a1818;}</style></defs><g class="a" transform="translate(-205.307 -243.535)"><path class="b" d="M251.676,243.535A46.37,46.37,0,1,1,205.307,289.9a46.375,46.375,0,0,1,46.369-46.369Z" transform="translate(0 0)"/><path class="c" d="M256.148,287.987a6.876,6.876,0,1,1-6.876,6.876,6.89,6.89,0,0,1,6.876-6.876Zm0,.665a6.211,6.211,0,1,1-6.211,6.211,6.223,6.223,0,0,1,6.211-6.211Zm-44.315,8.56,8.718-.763.18,2.057-8.718.763-.18-2.057Zm-.382-3.346.179-2.045,6.432-3.558-6.075-.532.17-1.949,8.718.762-.171,1.949-6.441,3.654,6.075.532-.17,1.949-8.717-.763Zm3.157-15.8a11.9,11.9,0,0,1,.6-1.364,3.418,3.418,0,0,1,.611-.82,2.856,2.856,0,0,1,1.622-.895,4.84,4.84,0,0,1,1.783.029,4.352,4.352,0,0,1,.5.121c.165.051.322.1.472.162a5.282,5.282,0,0,1,2.214,1.518,3.468,3.468,0,0,1,.859,2.168.077.077,0,0,1,.006.035.123.123,0,0,1-.01.041,3.837,3.837,0,0,1-.112.979,11.034,11.034,0,0,1-.427,1.3l-1.346,3.508-8.169-3.136,1.4-3.643Zm6.048,4.276.581-1.513a6.283,6.283,0,0,0,.274-.846,1.941,1.941,0,0,0,.038-.6.187.187,0,0,1-.012-.036c0-.014-.006-.03-.007-.048a2.041,2.041,0,0,0-.641-1.127,4.1,4.1,0,0,0-1.4-.854,4.385,4.385,0,0,0-1.156-.289,2.434,2.434,0,0,0-.983.1,1.582,1.582,0,0,0-.74.52A4.573,4.573,0,0,0,216,278.82l-.581,1.513,5.234,2.009Zm-1.25-13.22,7.255,4.894-1.155,1.712-7.255-4.893,1.155-1.712Zm4.088-5.1,1.675-1.618,8.635,3.826-1.623,1.568-1.768-.846-2.634,2.543.775,1.8-1.563,1.509-3.5-8.788Zm5.5,2.252-3.292-1.594,1.47,3.353,1.822-1.76Zm1.61-8.532,1.812-.964,6.487,3.457-2.862-5.384,1.727-.919,4.108,7.727-1.728.919-6.572-3.412,2.863,5.385-1.728.919L230.6,257.74Zm20.347-7.146a9.544,9.544,0,0,1,1.526-.043,2.715,2.715,0,0,1,.962.259c.017.006.036.015.056.025a.267.267,0,0,1,.058.037,2.15,2.15,0,0,1,.857.774,2.535,2.535,0,0,1,.358,1.132,1.965,1.965,0,0,1-.229,1.237,3.116,3.116,0,0,1-1.016.92,2.474,2.474,0,0,1,.5.18,1.267,1.267,0,0,1,.322.231,1.429,1.429,0,0,1,.395.731,8.14,8.14,0,0,1,.161.944l.007.078c0,.028,0,.054.006.078l0,.054.006.066a7.28,7.28,0,0,0,.153.993,1.086,1.086,0,0,0,.44.69l-2.284.2q-.071-.126-.116-.219l-.088-.185a2.017,2.017,0,0,1-.1-.365c-.024-.135-.051-.329-.081-.583,0-.04-.007-.08-.01-.12s-.007-.079-.011-.119a.588.588,0,0,1-.022-.119c0-.04-.007-.076-.01-.108a2.664,2.664,0,0,0-.338-1.175q-.257-.387-1.5-.278l-1.889.165.3,3.444-2.069.181-.763-8.718,4.413-.386Zm-2.011,4.008,1.961-.172a3.031,3.031,0,0,0,1.431-.372.963.963,0,0,0,.323-.926.931.931,0,0,0-.465-.833,3.161,3.161,0,0,0-1.485-.1l-1.961.171.2,2.237Zm12.844-3.641,2.286.444,1.818,9.268-2.215-.431-.321-1.933-3.594-.7-1.034,1.67-2.133-.415,5.193-7.9Zm1.307,5.793-.582-3.61-1.9,3.127,2.486.483Zm8.868-2.887-3.136,8.169-1.928-.74,3.136-8.169,1.927.74Zm4.908,2.476-3.7,6.153,4.188,2.516-.81,1.348-5.967-3.586,4.507-7.5,1.78,1.07Zm6.457,4.648-2.462,4.4-.214.36q-.107.18-.223.352c-.072.121-.145.239-.219.356s-.15.233-.227.348l.222-.161.222-.161.113-.082.113-.083.335-.244.335-.243,4.145-2.772,1.71,1.651-2.684,4.283q-.223.352-.459.7t-.484.692q.361-.236.714-.471t.7-.462l4.429-2.6,1.494,1.443-8.134,4.31-1.477-1.426,2.64-4.393.219-.364q.111-.185.236-.365.107-.18.227-.356l.236-.348-.339.248q-.172.126-.348.24-.176.13-.352.252t-.344.244l-4.3,2.791-1.425-1.375,4.041-8.263,1.555,1.5Zm9.881,12.4,1.057,2.075-6.184,7.139-1.024-2.011,1.326-1.444-1.662-3.262-1.952.213-.987-1.936,9.427-.775Zm-3.761,4.6,2.487-2.682-3.636.425,1.15,2.257Zm7.091,3.434-3.075,3.086,4.184,1.053.578,2.157-6.151-1.807-3.165.848-.538-2.006,3.165-.848,4.4-4.733.6,2.249Zm-4.211,11.484a1.647,1.647,0,0,0-1.153.686,2.838,2.838,0,0,0-.375,1.446,2.782,2.782,0,0,0,.241,1.36.85.85,0,0,0,.726.548.557.557,0,0,0,.433-.2,1.871,1.871,0,0,0,.352-.618l1.127-3.035a3.813,3.813,0,0,1,.847-1.388,1.8,1.8,0,0,1,1.392-.48,2.258,2.258,0,0,1,1.89,1.081,4.512,4.512,0,0,1,.632,2.707,4.785,4.785,0,0,1-.824,2.806,2.639,2.639,0,0,1-2.132,1.019l.071-2.015a1.67,1.67,0,0,0,1.065-.563,2.184,2.184,0,0,0,.369-1.284,2.357,2.357,0,0,0-.245-1.228.836.836,0,0,0-.7-.511.529.529,0,0,0-.384.161,1.362,1.362,0,0,0-.312.5l-1.155,3.131a5.061,5.061,0,0,1-.825,1.46,1.7,1.7,0,0,1-1.429.514,2.218,2.218,0,0,1-1.152-.364,2.907,2.907,0,0,1-.9-.968,3.416,3.416,0,0,1-.434-1.162,7.235,7.235,0,0,1-.085-1.535,6.611,6.611,0,0,1,.387-2.154,3.191,3.191,0,0,1,.985-1.389.789.789,0,0,0,.074-.052c.025-.019.049-.036.074-.051a2.005,2.005,0,0,1,.635-.3,4.438,4.438,0,0,1,.881-.119l-.07,1.991Zm-36.172-5.585a7.541,7.541,0,1,1-7.541,7.541,7.556,7.556,0,0,1,7.541-7.541Zm0-3.758a11.3,11.3,0,1,1-11.3,11.3,11.321,11.321,0,0,1,11.3-11.3Zm-9.462,22.094c.5,0,.909.824.909,1.835s-.408,1.835-.909,1.835-.908-.824-.908-1.835.408-1.835.908-1.835Zm2.756,1.409a1.307,1.307,0,1,1-1.035,1.278,1.178,1.178,0,0,1,1.035-1.278Zm2.666.908a1.034,1.034,0,1,1-.818,1.011.932.932,0,0,1,.818-1.011Zm13.5-2.317c-.5,0-.908.824-.908,1.835s.408,1.835.908,1.835.909-.824.909-1.835-.408-1.835-.909-1.835Zm-2.756,1.409a1.307,1.307,0,1,0,1.035,1.278,1.179,1.179,0,0,0-1.035-1.278Zm-2.666.908a1.034,1.034,0,1,0,.818,1.011.932.932,0,0,0-.818-1.011Zm-4.088.407a1,1,0,1,1-.791.978.9.9,0,0,1,.791-.978Zm-13.769-3.96-13.921,13.408c-1.033.995-.695,2.62.914,1.8l13.33-6.808-.324-8.4Zm11.68-10.978.719-.719,1.418,1.419,1.419-1.419.719.719-1.419,1.418,1.419,1.419-.719.719-1.419-1.418L254.729,297l-.719-.719,1.419-1.419-1.419-1.418Zm.974-31.7a31.919,31.919,0,0,1,13.448,60.87v-3.173h2.381q1.252-.773,2.422-1.663h-4.8v-1.663h6.808q.883-.8,1.7-1.663h-8.51v-1.663h9.974q.662-.808,1.268-1.663H243.02l-.092,12.266-1.393-.785v0a31.788,31.788,0,0,1-3.08-1.651c-3.831-.2-7.163,1.069-10.536,1.312-1.934.139-4.109-2.578-2.236-4.356l4.461-4.234a31.894,31.894,0,0,1,24.839-51.941ZM267.747,301.8v8.645h-23.2V301.8a13.45,13.45,0,0,1-.665-1.249v.6h-5.392a5.537,5.537,0,0,1-.166.6l-.554,1.066H241.6l1.494-1.418-.011,1.418h.8v1.663h-.813l-.012,1.663h.826V307.8h-.838l-.012,1.663h.851v1.647h24.529v-1.647h12.361q.5-.815.952-1.663H268.412v-1.663h14.133q.373-.818.7-1.663H268.412v-1.663h15.415q.262-.821.478-1.663H268.412v-.6a13.553,13.553,0,0,1-.665,1.249Zm-2.892-17.276a13.677,13.677,0,0,1,1.657,1.663h17.8q-.215-.84-.477-1.663Zm2.851,3.325a13.5,13.5,0,0,1,.861,1.663h16.4q-.116-.838-.278-1.663Zm1.455,3.325a13.413,13.413,0,0,1,.36,1.663h15.715q-.023-.837-.091-1.663Zm.507,3.325c0,.12.005.24.005.36q0,.659-.063,1.3h15.533q.069-.825.092-1.663Zm-.325,3.325a13.322,13.322,0,0,1-.489,1.663h15.824q.162-.824.28-1.663Zm-25.9,1.663a13.407,13.407,0,0,1-.489-1.663h-3.82q-.085.287-.165.581a9.133,9.133,0,0,0-.213,1.081Zm-.755-3.325c-.041-.429-.063-.863-.063-1.3,0-.121,0-.24,0-.36h-2.184a15.35,15.35,0,0,0-.751,1.663Zm.089-3.325a13.419,13.419,0,0,1,.36-1.663h-.261q-.04.1-.08.2a12.249,12.249,0,0,0-1.3,1.467Zm-2.928-11.381q.091-.131.185-.257H227.418q-.373.819-.7,1.663h12.462a6.718,6.718,0,0,1,.663-1.405Zm1.779-1.92c.674-.577,1.39-1.1,2.091-1.663H229.188q-.5.815-.951,1.663Zm3.8-3.325a8.56,8.56,0,0,0,.987-1.861l.185-.1-.211.109c-.021.063-.042.125-.065.186H231.555q-.661.809-1.267,1.663Zm3.771-3.325a38.034,38.034,0,0,1,3.581-1.663H234.72q-.883.8-1.7,1.663Zm12.659-1.722c.251.609.5,1.178.776,1.722h14.322q-.818-.864-1.7-1.663H261.881l-.023-.058Zm1.709,3.385a18.151,18.151,0,0,0,1.19,1.663h14.929q-.605-.853-1.267-1.663Zm1.245,3.325a4.726,4.726,0,0,0,.251,1.663H281.73q-.45-.847-.952-1.663Zm.44,3.325a4.4,4.4,0,0,1-.67,1.663h18.672q-.324-.843-.7-1.663Zm-28.338,23.277-.323.621q-.073-.313-.145-.621h-9.714q.324.844.7,1.663h10.671l1.752-1.663Zm-.853-1.663c-.127-.561-.247-1.113-.356-1.663H225.663q.215.842.478,1.663Zm-.65-3.325c-.084-.549-.151-1.1-.2-1.663H225.008c.078.56.172,1.113.28,1.663Zm-.289-3.325c-.006-.369,0-.745.01-1.129l.014-.365.046-.168H224.732q.023.838.093,1.663Zm.526-3.325.456-1.663H224.822q-.068.826-.091,1.663Zm.913-3.325.457-1.663H225.284q-.162.824-.278,1.663Zm1.667-3.325a4.977,4.977,0,0,0,.585-1.663H226.137q-.262.822-.477,1.663ZM236.343,307.8h-8.1q.45.848.953,1.663h5.4l1.752-1.663Zm-3.5,3.325H230.3q.51.719,1.061,1.406l1.482-1.406Zm10.18,1.663h4.869v1.663h-4.869v-1.663Zm6.353,0h4.869v1.663h-4.869v-1.663Zm6.353,0h4.869v1.663h-4.869v-1.663Zm-12.706,3.325h4.869v1.663h-4.869v-1.663Zm6.353,0h4.869v1.663h-4.869v-1.663Zm6.353,0h4.869v1.663h-4.869v-1.663Zm-12.706,3.325h4.869v1.663h-4.869v-1.663Zm6.353,0h4.869v1.663h-4.869v-1.663Zm6.353,0h4.869v1.663h-4.869v-1.663Zm-12.706,2.017a30.014,30.014,0,0,0,3.646,1.308h1.223V324.8a31.678,31.678,0,0,1-4.869-1.536v-1.8Zm6.353,1.308h4.869v2.822a31.783,31.783,0,0,1-4.869-.488v-2.334Zm6.353,0h4.869V325.1a31.834,31.834,0,0,1-4.869.488v-2.822Zm6.353-9.976h4.869v1.663h-4.869v-1.663Zm0,3.325h4.869v1.663h-4.869v-1.663Zm0,3.325h4.869v1.663h-4.869v-1.663Zm0,3.325H263.3a29.982,29.982,0,0,0,3.644-1.307v1.8a31.63,31.63,0,0,1-4.869,1.536v-2.032Zm-25.353-53.2h36.516q-1.169-.887-2.423-1.663h-31.67q-1.253.774-2.423,1.663Zm5.5-3.325h25.517a30.09,30.09,0,0,0-4.435-1.663H246.659a30.1,30.1,0,0,0-4.434,1.663Zm-11.4,50.9,1.119-.927.382.5-1.286.853-.215-.43Zm1.882-1.56,1.125-.932.539.71-1.218.809-.445-.587Zm1.888-1.565.891-.738.677.891-.965.641-.6-.794Zm1.655-1.371,1.024-.849.825,1.088-1.11.737-.74-.975Zm1.788-1.482,1.158-.96.985,1.3-1.254.833-.889-1.171Zm1.921-1.592,1.322-1.1v2.3l-.273.181-1.048-1.382Zm-8.992,10.09c.574-.169,1.1-.12,1.165.109s-.345.555-.919.724-1.1.12-1.165-.109.345-.555.92-.724Zm3.8-1.377c.734-.217,1.4-.154,1.491.14s-.442.71-1.177.926-1.4.154-1.491-.14.442-.71,1.177-.926Zm3.859-1.5c.968-.285,1.85-.2,1.964.185s-.582.936-1.55,1.221-1.85.2-1.964-.185.582-.936,1.55-1.221Zm16.334,12.633.769,2.563,2.556-.023-2.081,1.561.811,2.549-2.055-1.6-2.055,1.6.81-2.549-2.081-1.561,2.556.023.769-2.563Zm8.043-.919,1.326,2.324,2.485-.6-1.676,1.989,1.363,2.3-2.362-1.095-1.643,2.02.217-2.666-2.379-1.053,2.5-.552.173-2.671Zm7.63-2.7,1.815,1.967,2.288-1.141-1.186,2.315,1.846,1.936-2.548-.535-1.147,2.337-.388-2.646-2.555-.491,2.308-1.1-.433-2.641Zm6.827-4.352,2.211,1.508,1.972-1.627-.635,2.523,2.234,1.471-2.6.051-.591,2.535-.974-2.491-2.6.1,2-1.591-1.015-2.476Zm5.672-5.776,2.493.972,1.555-2.028-.051,2.6,2.508.931-2.525.635-.006,2.6-1.51-2.208-2.511.678,1.591-2-1.546-2.184Zm4.228-6.9,2.648.386,1.059-2.326.536,2.546,2.653.343-2.317,1.187.58,2.538-1.968-1.812-2.294,1.226,1.1-2.307-2-1.78ZM237.7,332.372l.34-2.654L235.7,328.7l2.536-.58.3-2.658,1.228,2.3,2.527-.624-1.777,2,1.266,2.273-2.326-1.061-1.745,2.029Zm9.151,2.888-.266-2.663-2.514-.465L246.416,331l-.309-2.656,1.712,1.961,2.322-1.177-1.282,2.348,1.745,1.93-2.505-.511-1.244,2.37Zm11.23-51.843a11.61,11.61,0,1,1-3.874,0v-2.4l-.039-.014c-3.161,1.2-6.075,2.414-8.509,4.86a9.714,9.714,0,0,0-4,4.75c-2.231,2.083-3.485,5.349-4.194,8.274a17.572,17.572,0,0,1-.4,2.4,22.458,22.458,0,0,1-.6-6.415L238.3,288.2l.358-.32a6.442,6.442,0,0,0,1.556-3.67c.47-3.553,4.435-4.652,6.341-7.258a8.533,8.533,0,0,0,.9-1.634c3.669-1.873,9.215-5.289,13.353-3.2a17.651,17.651,0,0,0,2.73,4.716,6.8,6.8,0,0,0,.372,3.421,3.563,3.563,0,0,1-1.219,2.924c-1.562-.268-3.09-.582-4.6-.97v1.21Zm-1.937.552a1.509,1.509,0,1,1-1.509,1.509,1.512,1.512,0,0,1,1.509-1.509Zm0,.853a.656.656,0,1,1-.656.656.657.657,0,0,1,.656-.656Z" transform="translate(-3.307 -3.768)"/></g></svg>