<svg xmlns="http://www.w3.org/2000/svg" width="55.413" height="55.413" viewBox="0 0 55.413 55.413"><defs><style>.a{fill:#fff;}</style></defs><g transform="translate(-3.375 -3.375)"><path class="a" d="M15.173,10.732a2.581,2.581,0,0,1,3.636,0L31.518,23.48a2.568,2.568,0,0,1,.08,3.543L19.076,39.584a2.567,2.567,0,1,1-3.636-3.623l10.643-10.8-10.909-10.8A2.541,2.541,0,0,1,15.173,10.732Z" transform="translate(9.874 5.91)"/><path class="a" d="M3.375,31.082A27.707,27.707,0,1,0,31.082,3.375,27.7,27.7,0,0,0,3.375,31.082Zm4.263,0A23.434,23.434,0,0,1,47.652,14.511,23.434,23.434,0,1,1,14.511,47.652,23.243,23.243,0,0,1,7.638,31.082Z"/></g></svg>