<svg xmlns="http://www.w3.org/2000/svg" width="149.293" height="46.429" viewBox="0 0 149.293 46.429"><defs><style>.a{opacity:0.6;}.b,.c{fill:#03172c;}.c{font-size:32px;font-family:SegoeUI, Segoe UI;}</style></defs><g class="a" transform="translate(-364.7 -213.924)"><path class="b" d="M191.77,165.133s3.076-1.178,5.434-5.658,2.829-7.543,1.415-13.2-2.121-10.369.707-14.851,12.433-9.657,18.12-6.407c4.32,2.469,6.658,9.516,3.579,14.072s-6.173,5.432-12.715,8.393c0,0,8.992-9.289,7.159-14.565-1.857-5.348-5.554-5.678-9.01-2.963-3.935,3.091-2.1,13.825-1.83,16.439.28,2.721.6,8.619-1.5,11.458C199.788,162.362,191.77,165.133,191.77,165.133Z" transform="translate(172.93 95.219)"/><text class="c" transform="translate(399.994 248.924)"><tspan x="0" y="0">Precium</tspan></text></g></svg>