<svg xmlns="http://www.w3.org/2000/svg" width="159.992" height="29.99" viewBox="0 0 159.992 29.99"><defs><style>.a{fill:#03172c;fill-rule:evenodd;opacity:0.6;}</style></defs><path class="a" d="M205.853,168.782V179.85h-3.406V169.425a2.262,2.262,0,0,0-2.369-2.52,2.508,2.508,0,0,0-2.813,2.619v1.631h0v8.7h-3.406V169.524c.049-2.619-3.06-3.311-5.084-2.075v12.4h-3.405V165.423c2.024-2.075,8.193-3.162,10.217,0a5.511,5.511,0,0,1,4.146-1.976c4.2-.049,6.17,2.619,6.12,5.336Zm-24.284,16.453.1.346a3.532,3.532,0,0,1-2.715,4.15l-4.837.939a3.454,3.454,0,0,1-4.1-2.717l-.1-.346a3.458,3.458,0,0,1,2.715-4.1l4.837-.988a3.454,3.454,0,0,1,4.1,2.717Zm-10.76-23.074.345-.1a3.5,3.5,0,0,1,4.146,2.718l2.616,12.9a3.481,3.481,0,0,1-2.715,4.1l-.345.1a3.529,3.529,0,0,1-4.146-2.717l-2.616-12.9a3.482,3.482,0,0,1,2.715-4.1Zm-9.18-1.235.395-.1a3.479,3.479,0,0,1,4.1,2.718l3.406,16.5a3.565,3.565,0,0,1-2.764,4.15l-.345.05a3.454,3.454,0,0,1-4.1-2.717l-3.406-16.5a3.482,3.482,0,0,1,2.715-4.1Zm-7.8,4.249.346-.1a3.567,3.567,0,0,1,4.146,2.718l2.715,13.291a3.565,3.565,0,0,1-2.764,4.15l-.346.049a3.454,3.454,0,0,1-4.1-2.717l-2.715-13.291a3.482,3.482,0,0,1,2.715-4.1Zm-8,4.348.346-.049a3.528,3.528,0,0,1,4.146,2.717l1.875,9.24a3.457,3.457,0,0,1-2.715,4.1l-.346.1A3.5,3.5,0,0,1,145,182.914l-1.876-9.239a3.532,3.532,0,0,1,2.715-4.151Zm142.3-5.83h4.1l3.455,5.583,3.258-5.633,4.1.049-5.281,8.1,5.281,8.054h-4.146l-3.208-5.336-3.307,5.336-4.2-.049,5.38-7.905Zm-7.009-.2c4.1,0,6.515,2.372,6.515,6.028v9.585c-7.058,2.569-12.833,1.186-12.734-4,.1-3.063,3.653-6.374,9.329-4.249v-1.334c0-3.755-5.479-3.607-6.811-1.532l-1.925-2.026c.888-1.383,3.406-2.52,5.627-2.471Zm3.11,10.277c-2.715-1.383-6.021-.988-5.972,1.581.1,1.877,3.159,2.471,5.972,1.68Zm-11.254-4.99V179.85h-3.405V169.425a2.25,2.25,0,0,0-2.32-2.52,2.508,2.508,0,0,0-2.813,2.619v1.631h-.049v8.7h-3.406V169.524c.1-2.619-3.011-3.311-5.084-2.075v12.4H252.5V165.423c2.073-2.075,8.193-3.162,10.217,0a5.631,5.631,0,0,1,4.2-1.976c4.146-.049,6.12,2.619,6.071,5.336ZM244.253,163.5c3.455,0,6.564,2.372,6.564,6.028v4.743c0,3.706-3.109,6.077-6.564,6.077a6.232,6.232,0,0,1-6.515-6.077v-4.743c0-3.656,3.11-6.028,6.515-6.028Zm.049,3.409c1.53,0,3.06.84,3.06,2.619v4.743c0,1.828-1.58,2.619-3.159,2.619a2.731,2.731,0,0,1-3.01-2.619v-4.743c0-1.779,1.53-2.619,3.109-2.619Zm-7.157-3.211v3.063c-2.764-.4-4.689.642-4.689,2.174V179.85h-3.405V169.227c-.148-3.162,2.616-6.374,8.095-5.534Zm-16.189-.2a6.36,6.36,0,0,1,6.318,4.3l-3.208,1.284a2.915,2.915,0,0,0-3.06-2.174c-1.579,0-3.11.84-3.11,2.619v4.743a2.732,2.732,0,0,0,3.011,2.619c1.431,0,2.912-.642,3.159-2.174L227.274,176a6.4,6.4,0,0,1-6.318,4.348,6.232,6.232,0,0,1-6.515-6.077v-4.743c0-3.656,3.109-6.028,6.515-6.028Zm-12.241.2h3.405V179.85h-3.405Z" transform="translate(-143.046 -160.754)"/></svg>