<svg xmlns="http://www.w3.org/2000/svg" width="130.847" height="40.831" viewBox="0 0 130.847 40.831"><defs><style>.a{fill:#03172c;fill-rule:evenodd;opacity:0.6;}</style></defs><path class="a" d="M211.835,369.367h15.911l1.744.073,1.671.145,1.6.363,1.526.364,1.38.581,1.308.581,1.235.727,1.162.8,1.018.872,1.017.944.871,1.018.8,1.09.654,1.162.654,1.163.508,1.235.436,1.235,22.6-14.531,8.21,5.521L258.55,384.043l2.833,1.889,17.728-11.262,7.628,5.086L269.23,391.309l2.979,1.816,17.8-11.334V369.367h13.078v24.775h11.625v11.625h-24.7V393.851l-22.013,14.168-22.449-15.185-.436,1.308-.436,1.235-.654,1.235-.654,1.235-.8,1.09-.872,1.09-.944,1.017-1.09.872-1.09.872-1.308.726-1.307.654-1.453.581-1.525.436-1.6.291-1.671.218-1.816.073H211.835v-36.4Zm12.5,11.406h3.414l1.526.145,1.235.436,1.09.654.944.872.654,1.017.508,1.09.291,1.235.073,1.235-.073,1.235-.291,1.235-.508,1.09-.727,1.017-.871.872-1.09.654L229.2,394l-1.453.145h-3.414V380.774Zm93.649-11.406h13.151v24.775h11.551v11.625h-24.7v-36.4Z" transform="translate(-211.835 -367.188)"/></svg>