<svg xmlns="http://www.w3.org/2000/svg" width="41.758" height="41.758" viewBox="0 0 41.758 41.758"><defs><style>.a{fill:#307fe2;}</style></defs><path class="a" d="M55.021,37a2.021,2.021,0,1,0,2.021,2.021A2.023,2.023,0,0,0,55.021,37Zm0,2.694a.674.674,0,1,1,.674-.674A.675.675,0,0,1,55.021,39.694Z" transform="translate(-17.977 -12.754)"/><path class="a" d="M42.758,27.267a4.715,4.715,0,1,0-5.388,4.661v6.789a2.694,2.694,0,0,1-5.388,0V19.858a1.348,1.348,0,0,0,1.347-1.347V17.017a9.074,9.074,0,0,0,6.735-8.743V5.041A2.7,2.7,0,0,0,37.37,2.347H36.023A1.348,1.348,0,0,0,34.676,1H33.329a1.348,1.348,0,0,0-1.347,1.347V3.694a1.348,1.348,0,0,0,1.347,1.347h1.347a1.348,1.348,0,0,0,1.347-1.347H37.37a1.348,1.348,0,0,1,1.347,1.347V8.275a7.726,7.726,0,0,1-5.408,7.349,1.344,1.344,0,0,0-1.327-1.154H30.635a1.344,1.344,0,0,0-1.327,1.154A7.727,7.727,0,0,1,23.9,8.275V5.041a1.348,1.348,0,0,1,1.347-1.347h1.347a1.348,1.348,0,0,0,1.347,1.347h1.347a1.348,1.348,0,0,0,1.347-1.347V2.347A1.348,1.348,0,0,0,29.288,1H27.941a1.348,1.348,0,0,0-1.347,1.347H25.246a2.7,2.7,0,0,0-2.694,2.694H21.205V3.694a1.348,1.348,0,0,0-1.347-1.347H18.511a1.348,1.348,0,0,0-1.347,1.347V5.041H14.47V3.694a1.348,1.348,0,0,0-1.347-1.347H11.776a1.348,1.348,0,0,0-1.347,1.347V5.041H7.735V3.694A1.348,1.348,0,0,0,6.388,2.347H5.041A1.348,1.348,0,0,0,3.694,3.694V5.041H2.347A1.348,1.348,0,0,0,1,6.388V36.023A1.348,1.348,0,0,0,2.347,37.37H30.635v1.347a4.041,4.041,0,0,0,8.082,0V31.928A4.718,4.718,0,0,0,42.758,27.267ZM34.676,3.694H33.329V2.347h1.347ZM27.941,2.347h1.347V3.694H27.941Zm2.694,13.47h1.347v2.694H30.635Zm-1.347,1.2v1.494a1.348,1.348,0,0,0,1.347,1.347v2.694H23.443L21.2,28.17,16.526,16.828l-4.1,8.884-2.254-4.506H5.041V14.47h19.98a9.022,9.022,0,0,0,4.267,2.547ZM4.268,30.256l5.708,2.039a5.229,5.229,0,0,0-.882,2.787ZM5.041,29.1V22.552h4.3l3.135,6.269L16.456,20.2l4.759,11.557L24.355,23.9h6.279v9.429H10.924a3.944,3.944,0,0,1,.655-.871l.753-.752ZM23.977,13.123H3.694v15.5l-1.347-.481V11.776H23.27A9.122,9.122,0,0,0,23.977,13.123ZM18.511,3.694h1.347V7.735H18.511Zm-6.735,0h1.347V7.735H11.776Zm-6.735,0H6.388V7.735H5.041ZM3.694,6.388V7.735A1.348,1.348,0,0,0,5.041,9.082H6.388A1.348,1.348,0,0,0,7.735,7.735V6.388h2.694V7.735a1.348,1.348,0,0,0,1.347,1.347h1.347A1.348,1.348,0,0,0,14.47,7.735V6.388h2.694V7.735a1.348,1.348,0,0,0,1.347,1.347h1.347a1.348,1.348,0,0,0,1.347-1.347V6.388h1.347V8.275a8.951,8.951,0,0,0,.268,2.154H2.347V6.388ZM2.347,30.24,8.13,36.023H2.347Zm8.082,5.783v-.789a3.942,3.942,0,0,1,.044-.558H30.635v1.347Zm27.614-5.388a3.368,3.368,0,1,1,3.368-3.368A3.371,3.371,0,0,1,38.043,30.635Z" transform="translate(-1 -1)"/></svg>