<svg xmlns="http://www.w3.org/2000/svg" width="25.323" height="28.798" viewBox="0 0 25.323 28.798"><defs><style>.a{fill:none;stroke:#307fe2;}</style></defs><path class="a" d="M0,25.192A2.607,2.607,0,0,0,2.606,27.8H21.717a2.607,2.607,0,0,0,2.606-2.606V10.424H0ZM17.374,14.551a.653.653,0,0,1,.652-.652H20.2a.653.653,0,0,1,.652.652v2.172a.653.653,0,0,1-.652.652H18.025a.653.653,0,0,1-.652-.652Zm0,6.95a.653.653,0,0,1,.652-.652H20.2a.653.653,0,0,1,.652.652v2.172a.653.653,0,0,1-.652.652H18.025a.653.653,0,0,1-.652-.652Zm-6.95-6.95a.653.653,0,0,1,.652-.652h2.172a.653.653,0,0,1,.652.652v2.172a.653.653,0,0,1-.652.652H11.076a.653.653,0,0,1-.652-.652Zm0,6.95a.653.653,0,0,1,.652-.652h2.172a.653.653,0,0,1,.652.652v2.172a.653.653,0,0,1-.652.652H11.076a.653.653,0,0,1-.652-.652Zm-6.95-6.95a.653.653,0,0,1,.652-.652H6.3a.653.653,0,0,1,.652.652v2.172a.653.653,0,0,1-.652.652H4.126a.653.653,0,0,1-.652-.652Zm0,6.95a.653.653,0,0,1,.652-.652H6.3a.653.653,0,0,1,.652.652v2.172a.653.653,0,0,1-.652.652H4.126a.653.653,0,0,1-.652-.652ZM21.717,3.475H19.111V.869A.871.871,0,0,0,18.243,0H16.505a.871.871,0,0,0-.869.869V3.475H8.687V.869A.871.871,0,0,0,7.818,0H6.081a.871.871,0,0,0-.869.869V3.475H2.606A2.607,2.607,0,0,0,0,6.081V8.687H24.323V6.081A2.607,2.607,0,0,0,21.717,3.475Z" transform="translate(0.5 0.5)"/></svg>