<svg xmlns="http://www.w3.org/2000/svg" width="38.886" height="43.098" viewBox="0 0 38.886 43.098"><defs><style>.a{fill:#307fe2;}</style></defs><path class="a" d="M63.184,17.3a2.853,2.853,0,0,0-2.4-1.25H59.666l-.445-4.094c-.144-1.34-.054-1.48.393-1.92.172-.169.366-.339.572-.518a6.877,6.877,0,0,0,2.746-5.38.842.842,0,0,0-1.048-.867c-.449.115-.862.226-1.226.324-2.659.716-3.29.887-5.8-.662C50.75.4,47.069-.479,43.6.245a16.693,16.693,0,0,0-6.8,3.566l-.4.307a5.11,5.11,0,0,0-4.036.517A5.992,5.992,0,0,0,29.6,8.9a38.775,38.775,0,0,0-.429,7.146H28.13a2.853,2.853,0,0,0-2.4,1.25,4.4,4.4,0,0,0-.718,2.507c0,2.177,1.352,4.49,3.858,4.49h.55a16.667,16.667,0,0,0,3.418,6.762,18.969,18.969,0,0,0-3.708,4.655.842.842,0,0,0,.737,1.248h0l2.281-.007a1.133,1.133,0,0,1,.745.4l1.254,1.908A2.775,2.775,0,0,0,36.3,40.418h.009l2.283-.007a1.131,1.131,0,0,1,.742.4l1.253,1.909a.841.841,0,0,0,.7.38h.033a.842.842,0,0,0,.7-.435c.549-1,1.113-2,1.659-2.964q.618-1.094,1.194-2.125a11.433,11.433,0,0,0,3.475-.77,16.308,16.308,0,0,0,3.178-1.615.842.842,0,0,0-.917-1.412,14.628,14.628,0,0,1-2.847,1.448,11.517,11.517,0,0,1-1.9.541c1.921-3.589,3.129-6.458,2.59-8.357A2.577,2.577,0,0,0,47.182,25.8c-1.77-.974-5.166-.418-8.863,1.451a24.185,24.185,0,0,0-4.2,2.7,13.478,13.478,0,0,1-3.266-7.928V17.249a11.719,11.719,0,0,1,5.653-3.17,4.114,4.114,0,0,1,2.782.158c.271.08.578.171.921.261a93.723,93.723,0,0,0,16.125,2.938l1.737.2v4.389a12.523,12.523,0,0,1-2.36,6.7.842.842,0,1,0,1.4.938A15.981,15.981,0,0,0,59.492,24.3h.552c2.506,0,3.858-2.314,3.858-4.49a4.4,4.4,0,0,0-.718-2.507ZM39.078,28.756c3.414-1.727,6.252-2.051,7.291-1.479a.914.914,0,0,1,.468.593c.532,1.873-2.087,6.514-4.62,11-.326.577-.658,1.166-.99,1.76l-.489-.745a2.785,2.785,0,0,0-2.152-1.158l-2.287.007h0a1.121,1.121,0,0,1-.737-.4l-1.254-1.908a2.787,2.787,0,0,0-2.155-1.158l-.767,0a20.848,20.848,0,0,1,7.694-6.517Zm-10.2-6.143c-1.6,0-2.175-1.679-2.175-2.807a2.756,2.756,0,0,1,.414-1.541,1.167,1.167,0,0,1,1.017-.532h1.038v4.3q0,.29.018.585Zm27.652-6.849A92.411,92.411,0,0,1,40.632,12.87c-.316-.083-.6-.166-.867-.246a7.163,7.163,0,0,0-2.129-.4,5.828,5.828,0,0,0-1.586.239,13.167,13.167,0,0,0-5.2,2.549,33.006,33.006,0,0,1,.409-5.857,4.294,4.294,0,0,1,1.961-3.069,3.447,3.447,0,0,1,3.045-.24.841.841,0,0,0,.789-.114c.248-.183.5-.376.767-.58C41.106,2.639,45.6-.8,53.974,4.365c3.127,1.93,4.379,1.593,7.119.855a5.131,5.131,0,0,1-2.013,3.028c-.215.188-.438.382-.648.588-1.01,1-1.045,1.808-.885,3.3l.413,3.8Zm3.518,6.849h-.311c.012-.2.019-.392.019-.585v-4.3h1.036a1.167,1.167,0,0,1,1.016.532,2.756,2.756,0,0,1,.414,1.541c0,1.128-.579,2.807-2.175,2.807Z" transform="translate(-25.016 0)"/><path class="a" d="M308.509,235.665a.842.842,0,0,0-.355-1.136l-2.1-1.1,2.1-1.1a.842.842,0,1,0-.782-1.491l-3.522,1.847a.842.842,0,0,0,0,1.491l3.522,1.847a.841.841,0,0,0,1.136-.355Z" transform="translate(-279.967 -211.316)"/><path class="a" d="M146.86,235.664a.841.841,0,0,0,1.136.355l3.522-1.847a.842.842,0,0,0,0-1.491L148,230.834a.842.842,0,1,0-.782,1.491l2.1,1.1-2.1,1.1A.842.842,0,0,0,146.86,235.664Z" transform="translate(-136.515 -211.315)"/><path class="a" d="M179.354,349.567a.838.838,0,0,0,.445-.128,16.432,16.432,0,0,1,4.7-2.044.842.842,0,0,0-.4-1.635,18.13,18.13,0,0,0-5.194,2.251.842.842,0,0,0,.446,1.556Z" transform="translate(-165.591 -316.634)"/><path class="a" d="M359.267,371.949l0,0a.842.842,0,1,0,1.193,0A.84.84,0,0,0,359.265,371.951Z" transform="translate(-330.904 -340.414)"/></svg>