<svg xmlns="http://www.w3.org/2000/svg" width="38.886" height="40.282" viewBox="0 0 38.886 40.282"><defs><style>.a{fill:#307fe2;}</style></defs><path class="a" d="M12.107,7.531a.59.59,0,1,1,.933.723,14.278,14.278,0,0,0-2.977,8.135l7.923-2.123a33.095,33.095,0,0,1-.051-10.022,14.108,14.108,0,0,0-3.088,2.079.59.59,0,0,1-.783-.883,15.378,15.378,0,0,1,5.291-3.053l-.57-1.6A.59.59,0,0,1,19.9.393l.594,1.663A15.35,15.35,0,0,1,37.552,9.474a.6.6,0,0,1,.079.337l-.209,3.076A1.377,1.377,0,0,1,36.4,14.124l-5.827,1.561a1.381,1.381,0,0,1-1.5-.562L28.32,14l-.092,1.355a1.377,1.377,0,0,1-1.017,1.237l-2.343.628,3.3,12.315,5.52-.016h0a.59.59,0,0,1,0,1.18l-11.556.033h-.006a2.176,2.176,0,0,1-1.545-.649l-4.159-4.244a3.248,3.248,0,0,0-3.327-.8l-1.265.422,7.886,7.941a1.782,1.782,0,0,0,1.256.523H43.816a3.04,3.04,0,0,0-.834-2.413,2.817,2.817,0,0,0-2-.827h-.01l-4.526.017h0a.59.59,0,0,1,0-1.18l4.526-.017a3.983,3.983,0,0,1,2.849,1.172A4.846,4.846,0,0,1,45,34.271a.827.827,0,0,1-.826.826H42.751l1.221,2.683a1.764,1.764,0,0,1,.056,1.324h3.139a.59.59,0,1,1,0,1.18H10.857a.59.59,0,1,1,0-1.18H16.4a1.764,1.764,0,0,1,.056-1.324l1.872-4.114L10.593,25.88a.834.834,0,0,1,.325-1.366l1.806-.6a4.436,4.436,0,0,1,4.543,1.1l4.159,4.244a.989.989,0,0,0,.7.3h0l4.815-.014L23.728,17.521l-2.344.628a1.381,1.381,0,0,1-1.5-.562l-.757-1.128-.092,1.355a1.377,1.377,0,0,1-1.017,1.237l-5.827,1.561a1.381,1.381,0,0,1-1.5-.562L8.973,17.491a.606.606,0,0,1-.1-.331,15.447,15.447,0,0,1,3.235-9.628ZM42.361,39.1a.591.591,0,0,0,.537-.835L41.454,35.1h-1.3l1.666,3.661A.592.592,0,0,0,42.361,39.1Zm-11.629,0h9.952L38.861,35.1h-9.2Zm-1.222,0L28.437,35.1H21.563L19.74,39.1Zm-11.984-.835a.591.591,0,0,0,.294.782.578.578,0,0,0,.242.053.594.594,0,0,0,.538-.346l1.7-3.74a2.985,2.985,0,0,1-1.073-.493Zm12.531-23.8a.2.2,0,0,0,.214.08L36.1,12.984a.2.2,0,0,0,.145-.177l.153-2.252-7.6,2.036Zm-1.838-2.94L36.137,9.4A14.188,14.188,0,0,0,22.91,2.843a26.41,26.41,0,0,1,5.309,8.682Zm-7.355,5.4a.2.2,0,0,0,.214.08l5.827-1.561a.2.2,0,0,0,.145-.177l.153-2.252-7.6,2.036Zm-1.731-2.969,7.941-2.128a25.23,25.23,0,0,0-5.6-8.785,13.9,13.9,0,0,0-2.257.641,31.9,31.9,0,0,0-.087,10.272Zm-7.462,5.432a.2.2,0,0,0,.214.08l5.827-1.561a.2.2,0,0,0,.145-.177l.153-2.252-7.6,2.036Z" transform="translate(-8.871 -0.002)"/></svg>