<svg xmlns="http://www.w3.org/2000/svg" width="18.327" height="20.802" viewBox="0 0 18.327 20.802"><defs><style>.a{fill:none;stroke:#307fe2;}</style></defs><path class="a" d="M0,17.946A1.857,1.857,0,0,0,1.856,19.8H15.471a1.857,1.857,0,0,0,1.856-1.856V7.426H0Zm12.377-7.581a.465.465,0,0,1,.464-.464h1.547a.465.465,0,0,1,.464.464v1.547a.465.465,0,0,1-.464.464H12.841a.465.465,0,0,1-.464-.464Zm0,4.951a.465.465,0,0,1,.464-.464h1.547a.465.465,0,0,1,.464.464v1.547a.465.465,0,0,1-.464.464H12.841a.465.465,0,0,1-.464-.464ZM7.426,10.365A.465.465,0,0,1,7.89,9.9H9.437a.465.465,0,0,1,.464.464v1.547a.465.465,0,0,1-.464.464H7.89a.465.465,0,0,1-.464-.464Zm0,4.951a.465.465,0,0,1,.464-.464H9.437a.465.465,0,0,1,.464.464v1.547a.465.465,0,0,1-.464.464H7.89a.465.465,0,0,1-.464-.464ZM2.475,10.365A.465.465,0,0,1,2.939,9.9H4.487a.465.465,0,0,1,.464.464v1.547a.465.465,0,0,1-.464.464H2.939a.465.465,0,0,1-.464-.464Zm0,4.951a.465.465,0,0,1,.464-.464H4.487a.465.465,0,0,1,.464.464v1.547a.465.465,0,0,1-.464.464H2.939a.465.465,0,0,1-.464-.464Zm13-12.841H13.614V.619A.621.621,0,0,0,13,0H11.758a.621.621,0,0,0-.619.619V2.475H6.188V.619A.621.621,0,0,0,5.569,0H4.332a.621.621,0,0,0-.619.619V2.475H1.856A1.857,1.857,0,0,0,0,4.332V6.188H17.327V4.332A1.857,1.857,0,0,0,15.471,2.475Z" transform="translate(0.5 0.5)"/></svg>